<?xml version="1.0" encoding="UTF-8"?>
<svg width="187px" height="110px" viewBox="0 0 187 110" version="1.1" xmlns="http://www.w3.org/2000/svg" xmlns:xlink="http://www.w3.org/1999/xlink">
    <!-- Generator: Sketch 60.1 (88133) - https://sketch.com -->
    <title>Plan A Technologies Light</title>
    <desc>Created with Sketch.</desc>
    <g id="Plan-A-Technologies-Light" stroke="none" stroke-width="1" fill="none" fill-rule="evenodd">
        <path d="M125,69 L167,69 L167,27 L125,27 L125,69 Z M153.012872,59.5438857 L155.393239,66.5820072 L162.480869,66.5820072 L150.228517,31.4448688 L141.772473,31.4448688 L129.520122,66.5820072 L136.608742,66.5820072 L138.988118,59.5438857 L153.012872,59.5438857 Z M150.885989,53.3167126 L141.064502,53.3167126 L145.975741,38.8869793 L150.885989,53.3167126 L150.885989,53.3167126 Z" id="Fill-1" fill="#FF5800"></path>
        <path d="M39.5983202,42.1730819 C39.5983202,35.1376251 35.3100399,30.5865799 27.9076396,30.5865799 L13,30.5865799 L13,66.4830887 L19.7394392,66.4830887 L19.7394392,53.6553924 L28.0604002,53.6553924 C35.0544405,53.6553924 39.5983202,48.8453857 39.5983202,42.1730819 Z M27.8567194,36.9483322 C30.9708395,36.9483322 32.8598794,38.5516678 32.8598794,42.1730819 C32.8598794,45.7934845 30.9708395,47.39682 27.8567194,47.39682 L19.7394392,47.39682 L19.7394392,36.9483322 L27.8567194,36.9483322 Z M43.8366786,66.4830887 L50.5761178,66.4830887 L50.5761178,28 L43.8366786,28 L43.8366786,66.4830887 Z M74.723279,66.4830887 L80.9005991,66.4830887 C80.5431592,65.4482544 80.1347991,63.4311874 80.1347991,62.1384033 L80.1347991,48.2758728 C80.1347991,46.1556259 79.3180789,39.1727707 68.6477993,39.1727707 C61.7555995,39.1727707 56.9561203,42.9489547 56.2931592,48.0169113 L63.0316,48.0169113 C63.6446393,45.7418945 66.4013196,44.6554702 68.8005599,44.6554702 C71.8128397,44.6554702 73.6000391,45.7934845 73.6000391,47.1894486 C73.6000391,49.362297 70.485919,49.8792084 66.0947999,50.2929398 C60.2749197,50.8108627 55.3236784,52.3626083 55.3236784,58.3622192 C55.3236784,64.1554702 60.4276803,67 65.9929595,67 C69.6682003,67 72.3240386,65.8619858 74.0593194,63.9996887 C74.21208,64.982933 74.4167593,65.8103958 74.723279,66.4830887 Z M73.8546402,56.1377808 C73.8546402,59.5518234 70.5877594,60.9487991 66.5540802,60.9487991 C63.8483202,60.9487991 62.1130394,59.9139648 62.1130394,58.4138092 C62.1130394,56.4483322 64.1548398,55.7240494 67.4736392,55.361908 C70.2303195,55.0523681 72.425879,54.5860352 73.8546402,53.6553924 L73.8546402,56.1377808 Z M110,50.9140426 C110,43.8795974 105.915401,39.1727707 99.739079,39.1727707 C96.9304801,39.1727707 94.6330801,40.4139648 92.9487195,42.4310318 L92.9487195,39.8444519 L86.5158,39.8444519 L86.5158,66.4830887 L93.2552392,66.4830887 L93.2552392,50.9140426 C93.2552392,47.9137314 95.3479599,45.637703 98.3602396,45.637703 C102.802279,45.637703 103.261559,49.362297 103.261559,50.9140426 L103.261559,66.4830887 L110,66.4830887 L110,50.9140426 L110,50.9140426 Z" id="Fill-2" fill="#FFFFFF"></path>
        <polyline id="Fill-3" fill="#FF5800" points="149 21.0389883 172.960865 21.0389883 172.960865 45 177 45 177 17 149 17 149 21.0389883"></polyline>
        <polyline id="Fill-4" fill="#FFFFFF" points="142.514104 23.9570351 142.514104 20 1 20 1 76 174 76 174 51.225779 170.009127 51.225779 170.009127 72.0409765 4.99087337 72.0409765 4.99087337 23.9570351 142.514104 23.9570351"></polyline>
        <path d="M43.2433084,85.7518469 L43.2433084,84.22364 L37,84.22364 L37,85.7518469 L39.3046039,85.7518469 L39.3046039,92.8509066 L40.9387045,92.8509066 L40.9387045,85.7518469 L43.2433084,85.7518469 Z M51.7611081,91.3216924 L47.030447,91.3216924 L47.030447,89.1205507 L50.9942452,89.1205507 L50.9942452,87.5923439 L47.030447,87.5923439 L47.030447,85.7518469 L51.6747859,85.7518469 L51.6747859,84.22364 L45.3953426,84.22364 L45.3953426,92.8509066 L51.7611081,92.8509066 L51.7611081,91.3216924 Z M61.5807682,90.1148422 L59.8222029,90.1148422 C59.4377677,90.8985897 58.657856,91.5070517 57.6792024,91.5070517 C56.2679336,91.5070517 55.1527703,90.1410343 55.1527703,88.4989926 C55.1527703,86.8710544 56.2679336,85.5040296 57.6792024,85.5040296 C58.669901,85.5040296 59.4377677,86.0883143 59.8222029,86.8710544 L61.5928132,86.8710544 C61.0598233,85.1061115 59.6224572,84 57.6792024,84 C55.3384636,84 53.517666,85.9764943 53.517666,88.4989926 C53.517666,91.0235057 55.3384636,93 57.6792024,93 C59.587326,93 61.0357334,91.8676964 61.5807682,90.1148422 Z M70.7801124,84.22364 L69.145008,84.22364 L69.145008,87.6789792 L65.4793228,87.6789792 L65.4793228,84.22364 L63.8311697,84.22364 L63.8311697,92.8509066 L65.4793228,92.8509066 L65.4793228,89.2081934 L69.145008,89.2081934 L69.145008,92.8509066 L70.7801124,92.8509066 L70.7801124,84.22364 Z M80.6499599,84.22364 L79.0018067,84.22364 L79.0018067,90.3636669 L75.5097698,84.22364 L73.5404176,84.22364 L73.5404176,92.8509066 L75.1745182,92.8509066 L75.1745182,86.708865 L78.6806076,92.8509066 L80.6499599,92.8509066 L80.6499599,84.22364 Z M87.2235011,84.0120887 C84.7833913,84.0120887 83.012781,86.0006716 83.012781,88.4989926 C83.012781,91.0104097 84.7833913,93 87.2235011,93 C89.6515658,93 91.4221761,91.0104097 91.4221761,88.4989926 C91.4221761,86.0006716 89.6515658,84.0120887 87.2235011,84.0120887 Z M87.2235011,91.4456011 C85.7981799,91.4456011 84.6589267,90.1148422 84.6589267,88.4989926 C84.6589267,86.8952317 85.7981799,85.5654802 87.2235011,85.5654802 C88.6347698,85.5654802 89.774023,86.8952317 89.774023,88.4989926 C89.774023,90.1148422 88.6347698,91.4456011 87.2235011,91.4456011 Z M95.4321467,84.22364 L93.7839936,84.22364 L93.7839936,92.8509066 L99.705099,92.8509066 L99.705099,91.3216924 L95.4321467,91.3216924 L95.4321467,84.22364 Z M105.201619,84.0120887 C102.76151,84.0120887 100.990899,86.0006716 100.990899,88.4989926 C100.990899,91.0104097 102.76151,93 105.201619,93 C107.629684,93 109.400294,91.0104097 109.400294,88.4989926 C109.400294,86.0006716 107.629684,84.0120887 105.201619,84.0120887 Z M105.201619,91.4456011 C103.776298,91.4456011 102.637045,90.1148422 102.637045,88.4989926 C102.637045,86.8952317 103.776298,85.5654802 105.201619,85.5654802 C106.612888,85.5654802 107.753145,86.8952317 107.753145,88.4989926 C107.753145,90.1148422 106.612888,91.4456011 105.201619,91.4456011 Z M119.615431,88.0517126 L115.788142,88.0517126 L115.788142,89.5809268 L118.116836,89.5809268 C117.806678,90.662861 116.853118,91.5070517 115.627543,91.5070517 C114.165083,91.5070517 113.013785,90.1410343 113.013785,88.5120887 C113.013785,86.8710544 114.128948,85.5040296 115.553266,85.5040296 C116.543964,85.5040296 117.361014,86.1255876 117.696266,86.8841504 L119.453828,86.8841504 C118.921842,85.0940228 117.459382,84.0120887 115.553266,84.0120887 C113.211523,84.0120887 111.37868,85.9885829 111.37868,88.5120887 C111.37868,91.0355944 113.211523,93 115.553266,93 C116.618241,93 117.534663,92.6020819 118.103787,91.9180658 L118.103787,92.8509066 L119.615431,92.8509066 L119.615431,88.0517126 Z M122.225174,92.8509066 L123.860278,92.8509066 L123.860278,84.22364 L122.225174,84.22364 L122.225174,92.8509066 Z M132.99739,91.3216924 L128.266729,91.3216924 L128.266729,89.1205507 L132.230527,89.1205507 L132.230527,87.5923439 L128.266729,87.5923439 L128.266729,85.7518469 L132.912072,85.7518469 L132.912072,84.22364 L126.631625,84.22364 L126.631625,92.8509066 L132.99739,92.8509066 L132.99739,91.3216924 Z M138.445731,84 C136.43924,84 135.138383,85.0305574 135.138383,86.5104097 C135.138383,88.3629953 136.748394,88.83546 138.334315,89.1457354 C139.919232,89.4570181 140.364896,89.7924782 140.364896,90.3394896 C140.364896,91.159503 139.386242,91.4959704 138.445731,91.4959704 C137.578493,91.4959704 136.561697,91.0104097 136.561697,89.9919409 L134.927596,89.9919409 C134.927596,92.0681666 136.761443,93 138.445731,93 C140.612821,93 142,91.9553392 142,90.2891202 C142,88.5251847 140.712192,88.0144392 138.667559,87.6044325 C137.355661,87.3314305 136.772484,87.1198791 136.772484,86.5235057 C136.772484,85.8646743 137.578493,85.5282069 138.445731,85.5282069 C139.485613,85.5282069 140.104925,86.0883143 140.104925,86.8337811 L141.740029,86.8337811 C141.740029,85.4657488 140.712192,84 138.445731,84 L138.445731,84 Z" id="Fill-5" fill="#FFFFFF"></path>
        <path d="M1,89 L29.0724509,89 L29.0724509,87 L1,87 L1,89 Z M145.927549,89 L174,89 L174,87 L145.927549,87 L145.927549,89 Z" id="Fill-6" fill="#FFFFFF"></path>
    </g>
</svg>